<svg width="71" height="64" viewBox="0 0 71 64" fill="none" xmlns="http://www.w3.org/2000/svg">
<path d="M35.7105 1.71924L64.6264 46.8652C64.733 47.0316 64.6135 47.25 64.4159 47.25H6.58413C6.38653 47.25 6.26703 47.0316 6.37361 46.8652L35.2895 1.71924C35.3878 1.56569 35.6122 1.5657 35.7105 1.71924Z" fill="#D9D9D9" stroke="#7A83BD" stroke-width="1.5"/>
<line x1="15.3516" y1="33.9619" x2="55.6489" y2="33.9619" stroke="#7A83BD"/>
<line y1="-0.25" x2="37.3197" y2="-0.25" transform="matrix(0.705158 -0.70905 0.850403 0.526131 34.541 34.4619)" stroke="#7A83BD" stroke-width="0.5"/>
<path d="M59.7046 7.1107C59.7046 6.32523 60.3413 5.68848 61.1268 5.68848H61.5096C62.2951 5.68848 62.9319 6.32523 62.9319 7.1107V7.1107C62.9319 7.89617 62.2951 8.53292 61.5096 8.53292H61.1268C60.3413 8.53292 59.7046 7.89617 59.7046 7.1107V7.1107Z" fill="#D9D9D9"/>
</svg>
