<svg width="45" height="48" viewBox="0 0 45 48" fill="none" xmlns="http://www.w3.org/2000/svg">
<path d="M32.3934 11.9415C32.9387 8.15561 33.2194 4.09787 33.2194 2.72801e-06H32.197C32.197 3.71178 31.9427 7.38722 31.4488 10.8165C30.9548 14.2457 30.2308 17.3616 29.318 19.9862C28.4053 22.6108 27.3217 24.6928 26.1292 26.1132C24.9366 27.5337 23.6585 28.2648 22.3677 28.2648C21.0768 28.2648 19.7987 27.5337 18.6061 26.1132C17.4136 24.6928 16.33 22.6108 15.4173 19.9862C14.5045 17.3616 13.7805 14.2457 13.2865 10.8165C12.7926 7.38722 12.5383 3.71178 12.5383 2.57024e-07L11.5159 0C11.5159 4.09787 11.7966 8.15561 12.3419 11.9415C12.8873 15.7275 13.6866 19.1675 14.6943 22.0651C15.702 24.9627 16.8983 27.2613 18.2149 28.8294C19.5315 30.3976 20.9426 31.2048 22.3677 31.2048H21.6193V41.9462C20.6959 42.2142 19.9977 43.4555 19.9977 44.9463C19.9977 46.6328 20.8912 48 21.9935 48C23.0957 48 23.9892 46.6328 23.9892 44.9463C23.9892 43.4555 23.291 42.2142 22.3677 41.9462V31.2048C23.7927 31.2048 25.2038 30.3976 26.5204 28.8294C27.837 27.2613 29.0333 24.9627 30.041 22.0651C31.0487 19.1675 31.848 15.7275 32.3934 11.9415Z" fill="#D9D9D9"/>
<path d="M8.94447 23.862C8.62289 24.0451 8.25808 24.0432 7.87086 23.8565C7.48364 23.6697 7.0816 23.3017 6.6877 22.7735C6.2938 22.2453 5.91574 21.5672 5.57512 20.778C5.2345 19.9888 4.93799 19.1038 4.70251 18.1737C4.46703 17.2436 4.29719 16.2865 4.2027 15.3571C4.10821 14.4277 4.09091 13.5442 4.1518 12.7571C4.21268 11.9699 4.35055 11.2945 4.55754 10.7693C4.76453 10.2442 5.03659 9.87971 5.35817 9.69659L5.7168 11.1131C5.45953 11.2596 5.24189 11.5512 5.0763 11.9713C4.91071 12.3914 4.80041 12.9318 4.7517 13.5615C4.703 14.1912 4.71683 14.8981 4.79243 15.6416C4.86802 16.3851 5.00389 17.1507 5.19227 17.8948C5.38065 18.6389 5.61787 19.3469 5.89036 19.9783C6.16286 20.6096 6.4653 21.1521 6.78042 21.5747C7.09555 21.9972 7.41718 22.2916 7.72695 22.441C8.03672 22.5905 8.32858 22.592 8.58584 22.4455L8.94447 23.862Z" fill="#D9D9D9"/>
<path d="M3.75468 26.1012C4.1419 26.288 4.50671 26.2899 4.8283 26.1068L4.46966 24.6902C4.2124 24.8367 3.92055 24.8352 3.61077 24.6858C3.301 24.5364 2.97937 24.242 2.66424 23.8194C2.34912 23.3969 2.04668 22.8544 1.77418 22.223C1.50169 21.5916 1.26448 20.8837 1.07609 20.1396C0.887707 19.3955 0.75184 18.6298 0.676247 17.8863C0.600654 17.1428 0.586816 16.436 0.635523 15.8063C0.68423 15.1765 0.794528 14.6362 0.96012 14.2161C1.12571 13.796 1.34335 13.5044 1.60062 13.3579L1.24199 11.9414C0.920406 12.1245 0.648354 12.489 0.441364 13.0141C0.234375 13.5392 0.0965023 14.2146 0.0356185 15.0018C-0.0252652 15.789 -0.00796782 16.6725 0.0865231 17.6019C0.181014 18.5313 0.350848 19.4883 0.586328 20.4185C0.821808 21.3486 1.11832 22.2335 1.45894 23.0228C1.79956 23.812 2.17762 24.4901 2.57152 25.0183C2.96542 25.5465 3.36746 25.9145 3.75468 26.1012Z" fill="#D9D9D9"/>
<path d="M38.6596 9.9712C39.0005 10.04 39.3206 10.3023 39.6017 10.7432C39.8828 11.1841 40.1194 11.7949 40.2979 12.5408C40.4764 13.2867 40.5933 14.153 40.6421 15.0902C40.6908 16.0275 40.6703 17.0174 40.5819 18.0035C40.4934 18.9895 40.3386 19.9523 40.1264 20.8369C39.9142 21.7215 39.6488 22.5107 39.3451 23.1592C39.0415 23.8078 38.7057 24.3031 38.3569 24.6169C38.0081 24.9307 37.6531 25.0568 37.3122 24.988L37.4469 23.4863C37.7196 23.5413 38.0036 23.4405 38.2827 23.1894C38.5617 22.9384 38.8304 22.5422 39.0733 22.0233C39.3162 21.5045 39.5286 20.8732 39.6983 20.1654C39.8681 19.4577 39.9919 18.6875 40.0627 17.8987C40.1334 17.1099 40.1498 16.3179 40.1108 15.5681C40.0718 14.8183 39.9783 14.1252 39.8355 13.5285C39.6927 12.9319 39.5034 12.4432 39.2786 12.0905C39.0537 11.7378 38.7976 11.5279 38.5248 11.4729L38.6596 9.9712Z" fill="#D9D9D9"/>
<path d="M43.9339 11.7109C43.6528 11.27 43.3326 11.0077 42.9917 10.9389L42.857 12.4405C43.1297 12.4956 43.3858 12.7054 43.6107 13.0582C43.8356 13.4109 44.0248 13.8995 44.1676 14.4962C44.3104 15.0929 44.404 15.786 44.443 16.5358C44.482 17.2856 44.4656 18.0775 44.3948 18.8664C44.324 19.6552 44.2002 20.4254 44.0305 21.1331C43.8607 21.8408 43.6483 22.4721 43.4054 22.991C43.1625 23.5098 42.8939 23.9061 42.6148 24.1571C42.3358 24.4081 42.0518 24.509 41.7791 24.454L41.6443 25.9556C41.9852 26.0244 42.3402 25.8983 42.6891 25.5846C43.0379 25.2708 43.3737 24.7755 43.6773 24.1269C43.9809 23.4783 44.2464 22.6892 44.4586 21.8046C44.6708 20.92 44.8255 19.9571 44.914 18.9711C45.0025 17.9851 45.0229 16.9952 44.9742 16.0579C44.9255 15.1206 44.8085 14.2543 44.63 13.5085C44.4515 12.7626 44.215 12.1518 43.9339 11.7109Z" fill="#D9D9D9"/>
</svg>
