<svg width="56" height="48" viewBox="0 0 56 48" fill="none" xmlns="http://www.w3.org/2000/svg">
<path d="M15.0698 0L44.461 0.0161403L44.96 0.346496L39.0915 36.9661C39.8274 38.1148 40.2621 39.5336 40.2621 41.069C40.2621 44.8969 37.5599 48 34.2265 48C30.893 48 28.1908 44.8969 28.1908 41.069C28.1908 37.2412 30.893 34.1381 34.2265 34.1381C35.9685 34.1381 37.5381 34.9856 38.6398 36.341L44.2901 1.08231L15.4815 1.06656L11.0965 36.7014C11.94 37.8934 12.4455 39.4134 12.4455 41.069C12.4455 44.8969 9.74323 48 6.40979 48C3.07634 48 0.374093 44.8969 0.374093 41.069C0.374093 37.2412 3.07634 34.1381 6.40979 34.1381C8.05139 34.1381 9.53994 34.8907 10.6281 36.1117L15.0697 0.0164006L15.0698 0Z" fill="#D9D9D9"/>
<path d="M10.6738 18.1441C10.3032 18.4242 9.89398 18.4792 9.46928 18.3059C9.04457 18.1325 8.61275 17.734 8.19849 17.1336C7.78423 16.5332 7.39566 15.7421 7.05488 14.806C6.71417 13.8699 6.42798 12.8067 6.21265 11.6774C5.99732 10.548 5.85707 9.37453 5.79986 8.22401C5.74271 7.07336 5.76975 5.96814 5.8795 4.97148C5.98925 3.97494 6.17946 3.10623 6.43939 2.41532C6.69924 1.72428 7.02375 1.22445 7.39425 0.944339L7.72221 2.66432C7.42577 2.88834 7.16623 3.2882 6.95827 3.841C6.75037 4.39381 6.59821 5.08876 6.51044 5.88601C6.4226 6.68339 6.40101 7.5676 6.44669 8.48798C6.49243 9.4085 6.60462 10.3472 6.77689 11.2507C6.94917 12.1542 7.17815 13.0047 7.45076 13.7536C7.7233 14.5026 8.03416 15.1353 8.36558 15.6158C8.697 16.0962 9.04246 16.4148 9.38221 16.5535C9.72196 16.6922 10.0494 16.6482 10.3459 16.4241L10.6738 18.1441Z" fill="#D9D9D9"/>
<path d="M3.70523 22.5608C4.12942 22.7366 4.53798 22.6834 4.90759 22.4039L4.57822 20.6765C4.28254 20.9001 3.95567 20.9427 3.6163 20.802C3.27694 20.6613 2.93174 20.3401 2.60032 19.8565C2.2689 19.3729 1.95785 18.7367 1.68485 17.9838C1.41186 17.2311 1.18231 16.3767 1.00926 15.4693C0.836278 14.5619 0.723198 13.6194 0.676493 12.6955C0.629787 11.7718 0.650417 10.8846 0.737165 10.085C0.823849 9.28524 0.975048 8.5886 1.18199 8.03488C1.38893 7.48117 1.64763 7.08104 1.9433 6.85755L1.61393 5.13015C1.24433 5.40961 0.920975 5.9097 0.66227 6.60191C0.403564 7.29412 0.214628 8.16479 0.106226 9.16445C-0.00217672 10.164 -0.027932 11.2728 0.0304338 12.4277C0.0887995 13.5825 0.230133 14.7607 0.446426 15.8948C0.662654 17.0291 0.949614 18.0972 1.29084 19.0382C1.63213 19.9791 2.02095 20.7744 2.43522 21.3789C2.84948 21.9832 3.28104 22.3849 3.70523 22.5608Z" fill="#D9D9D9"/>
<path d="M47.4518 2.21461C47.8435 2.32238 48.2172 2.66602 48.5516 3.22572C48.8859 3.78542 49.1743 4.55027 49.4003 5.47664C49.6262 6.40302 49.7854 7.47271 49.8687 8.62466C49.9519 9.77674 49.9576 10.9884 49.8854 12.1906C49.8132 13.3928 49.6646 14.5621 49.448 15.6315C49.2314 16.7009 48.9511 17.6496 48.6231 18.4235C48.295 19.1973 47.9257 19.7811 47.5361 20.1416C47.1465 20.502 46.7445 20.632 46.3527 20.5241L46.4626 18.6932C46.776 18.7795 47.0977 18.6755 47.4094 18.3871C47.721 18.0988 48.0165 17.6317 48.2789 17.0127C48.5414 16.3936 48.7656 15.6346 48.9388 14.7791C49.1121 13.9235 49.2311 12.9881 49.2888 12.0264C49.3465 11.0646 49.342 10.0952 49.2753 9.17369C49.2088 8.252 49.0815 7.3963 48.9007 6.65515C48.7199 5.91412 48.4892 5.30222 48.2217 4.85446C47.9542 4.4067 47.6553 4.13179 47.3419 4.04549L47.4518 2.21461Z" fill="#D9D9D9"/>
<path d="M54.6222 4.99439C54.2889 4.43286 53.9163 4.08858 53.5255 3.98093L53.4151 5.81976C53.7277 5.90592 54.0259 6.18135 54.2925 6.63055C54.5591 7.07961 54.7891 7.69372 54.9691 8.43761C55.1491 9.18137 55.2758 10.0406 55.3419 10.9659C55.408 11.8912 55.4121 12.8646 55.3541 13.8306C55.2962 14.7964 55.1771 15.7359 55.0039 16.5954C54.8307 17.4548 54.6067 18.2175 54.3446 18.8397C54.0826 19.4617 53.7876 19.9313 53.4766 20.2215C53.1656 20.5116 52.8447 20.6167 52.532 20.5305L52.4216 22.3694C52.8124 22.477 53.2136 22.3456 53.6024 21.983C53.9912 21.6203 54.3599 21.0334 54.6874 20.2557C55.015 19.478 55.295 18.5248 55.5116 17.4504C55.728 16.3762 55.8768 15.2017 55.9493 13.9943C56.0217 12.7869 56.0165 11.5701 55.9339 10.4135C55.8514 9.25686 55.6931 8.18301 55.468 7.25312C55.2429 6.32336 54.9555 5.55578 54.6222 4.99439Z" fill="#D9D9D9"/>
</svg>
